<mxfile host="app.diagrams.net" modified="2023-03-29T23:39:05.165Z" agent="Mozilla/5.0 (Windows NT 10.0; Win64; x64) AppleWebKit/537.36 (KHTML, like Gecko) Chrome/111.0.0.0 Safari/537.36" etag="vHT60JA57kLcK3Ddo9mA" version="21.1.2" type="github">
  <diagram name="Page-1" id="gCdOoUI2HqC-e8AuaMwV">
    <mxGraphModel dx="855" dy="1587" grid="1" gridSize="10" guides="1" tooltips="1" connect="1" arrows="1" fold="1" page="1" pageScale="1" pageWidth="850" pageHeight="1100" math="0" shadow="0">
      <root>
        <mxCell id="0" />
        <mxCell id="1" parent="0" />
        <mxCell id="K8kBHid7vQeiIFPdY2TL-1" value="Hello World!" style="whiteSpace=wrap;html=1;aspect=fixed;" parent="1" vertex="1">
          <mxGeometry x="520" y="30" width="80" height="80" as="geometry" />
        </mxCell>
        <mxCell id="uFmAbwSsX1-XB5iYkk8o-1" value="User" style="rounded=0;whiteSpace=wrap;html=1;" vertex="1" parent="1">
          <mxGeometry x="160" y="30" width="120" height="60" as="geometry" />
        </mxCell>
        <mxCell id="uFmAbwSsX1-XB5iYkk8o-2" value="Username" style="ellipse;whiteSpace=wrap;html=1;" vertex="1" parent="1">
          <mxGeometry x="80" y="-70" width="120" height="80" as="geometry" />
        </mxCell>
        <mxCell id="uFmAbwSsX1-XB5iYkk8o-3" value="Password" style="ellipse;whiteSpace=wrap;html=1;" vertex="1" parent="1">
          <mxGeometry x="240" y="-70" width="120" height="80" as="geometry" />
        </mxCell>
        <mxCell id="uFmAbwSsX1-XB5iYkk8o-4" value="" style="shape=link;html=1;rounded=0;width=-4;exitX=0.5;exitY=1;exitDx=0;exitDy=0;" edge="1" parent="1" source="uFmAbwSsX1-XB5iYkk8o-1">
          <mxGeometry relative="1" as="geometry">
            <mxPoint x="250" y="120" as="sourcePoint" />
            <mxPoint x="220" y="130" as="targetPoint" />
            <Array as="points">
              <mxPoint x="220" y="120" />
            </Array>
          </mxGeometry>
        </mxCell>
        <mxCell id="uFmAbwSsX1-XB5iYkk8o-7" value="d" style="ellipse;whiteSpace=wrap;html=1;aspect=fixed;" vertex="1" parent="1">
          <mxGeometry x="205" y="130" width="30" height="30" as="geometry" />
        </mxCell>
        <mxCell id="uFmAbwSsX1-XB5iYkk8o-9" value="" style="endArrow=none;html=1;rounded=0;entryX=0.5;entryY=1;entryDx=0;entryDy=0;exitX=0;exitY=0;exitDx=0;exitDy=0;" edge="1" parent="1" source="uFmAbwSsX1-XB5iYkk8o-1" target="uFmAbwSsX1-XB5iYkk8o-2">
          <mxGeometry width="50" height="50" relative="1" as="geometry">
            <mxPoint x="400" y="150" as="sourcePoint" />
            <mxPoint x="450" y="100" as="targetPoint" />
          </mxGeometry>
        </mxCell>
        <mxCell id="uFmAbwSsX1-XB5iYkk8o-10" value="" style="endArrow=none;html=1;rounded=0;" edge="1" parent="1">
          <mxGeometry width="50" height="50" relative="1" as="geometry">
            <mxPoint x="280" y="30" as="sourcePoint" />
            <mxPoint x="300" y="10" as="targetPoint" />
          </mxGeometry>
        </mxCell>
      </root>
    </mxGraphModel>
  </diagram>
</mxfile>
